<mxfile host="app.diagrams.net" agent="Mozilla/5.0 (Windows NT 10.0; Win64; x64; rv:132.0) Gecko/20100101 Firefox/132.0" version="24.9.1">
  <diagram name="Page-1" id="bzFnu9BLVwTrNdM9VJt0">
    <mxGraphModel dx="683" dy="372" grid="1" gridSize="10" guides="1" tooltips="1" connect="1" arrows="1" fold="1" page="1" pageScale="1" pageWidth="827" pageHeight="1169" math="0" shadow="0">
      <root>
        <mxCell id="0" />
        <mxCell id="1" parent="0" />
        <mxCell id="FR-FzOE8dP7nfsgr2r2W-3" value="" style="edgeStyle=orthogonalEdgeStyle;rounded=0;orthogonalLoop=1;jettySize=auto;html=1;" edge="1" parent="1" source="FR-FzOE8dP7nfsgr2r2W-1" target="FR-FzOE8dP7nfsgr2r2W-2">
          <mxGeometry relative="1" as="geometry" />
        </mxCell>
        <mxCell id="FR-FzOE8dP7nfsgr2r2W-1" value="main" style="rounded=0;whiteSpace=wrap;html=1;" vertex="1" parent="1">
          <mxGeometry x="40" y="40" width="120" height="60" as="geometry" />
        </mxCell>
        <mxCell id="FR-FzOE8dP7nfsgr2r2W-4" style="edgeStyle=orthogonalEdgeStyle;rounded=0;orthogonalLoop=1;jettySize=auto;html=1;" edge="1" parent="1" source="FR-FzOE8dP7nfsgr2r2W-2" target="FR-FzOE8dP7nfsgr2r2W-5">
          <mxGeometry relative="1" as="geometry">
            <mxPoint x="360" y="70" as="targetPoint" />
          </mxGeometry>
        </mxCell>
        <mxCell id="FR-FzOE8dP7nfsgr2r2W-2" value="load background textures from files" style="rounded=1;whiteSpace=wrap;html=1;" vertex="1" parent="1">
          <mxGeometry x="190" y="40" width="120" height="60" as="geometry" />
        </mxCell>
        <mxCell id="FR-FzOE8dP7nfsgr2r2W-7" value="" style="edgeStyle=orthogonalEdgeStyle;rounded=0;orthogonalLoop=1;jettySize=auto;html=1;" edge="1" parent="1" source="FR-FzOE8dP7nfsgr2r2W-5" target="FR-FzOE8dP7nfsgr2r2W-6">
          <mxGeometry relative="1" as="geometry" />
        </mxCell>
        <mxCell id="FR-FzOE8dP7nfsgr2r2W-5" value="scroll each background layer" style="rounded=1;whiteSpace=wrap;html=1;" vertex="1" parent="1">
          <mxGeometry x="340" y="40" width="120" height="60" as="geometry" />
        </mxCell>
        <mxCell id="FR-FzOE8dP7nfsgr2r2W-6" value="draw each background layer" style="whiteSpace=wrap;html=1;rounded=1;" vertex="1" parent="1">
          <mxGeometry x="490" y="40" width="120" height="60" as="geometry" />
        </mxCell>
      </root>
    </mxGraphModel>
  </diagram>
</mxfile>
